<?xml version="1.0" encoding="utf-8"?>
<!-- Generator: Adobe Illustrator 16.0.3, SVG Export Plug-In . SVG Version: 6.00 Build 0)  -->
<!DOCTYPE svg PUBLIC "-//W3C//DTD SVG 1.1//EN" "http://www.w3.org/Graphics/SVG/1.1/DTD/svg11.dtd">
<svg version="1.1" id="Ebene_1" xmlns="http://www.w3.org/2000/svg" xmlns:xlink="http://www.w3.org/1999/xlink" x="0px" y="0px"
	 width="46px" height="46px" viewBox="0 0 46 46" enable-background="new 0 0 46 46" xml:space="preserve">
<g stroke="busy" x="0" y="0" width="46" height="46">

    <animateTransform attributeType="xml"
    				  attributeName="transform"
    				  type="rotate"
    				  from="0 23 23"
    				  to="360 23 23"
    				  dur="1.0s"
    				  repeatCount="indefinite" />
	<path fill-rule="evenodd" clip-rule="evenodd" fill="none" d="M34.499023,3.081055
		c0.924805,0.53418,1.242188,1.716797,0.708008,2.64209l-4.011719,6.947754c-0.533203,0.924805-1.716797,1.242188-2.641602,0.708008
		s-1.241211-1.716797-0.708008-2.64209l4.012695-6.947754C32.391602,2.864258,33.574219,2.546875,34.499023,3.081055z"/>
	<path fill-rule="evenodd" clip-rule="evenodd" fill="none" d="M42.920898,11.499512
		c0.533203,0.924805,0.216797,2.107422-0.708008,2.64209l-6.948242,4.01123c-0.924805,0.53418-2.108398,0.216797-2.641602-0.708008
		c-0.53418-0.924805-0.217773-2.10791,0.708008-2.64209l6.947266-4.01123
		C41.204102,10.257813,42.386719,10.574707,42.920898,11.499512z"/>
	<path fill-rule="evenodd" clip-rule="evenodd" fill="none" d="M46,22.999512c0,1.067871-0.865234,1.934082-1.93457,1.934082
		h-8.021484c-1.068359,0-1.93457-0.866211-1.93457-1.934082c0-1.068359,0.866211-1.934082,1.93457-1.934082h8.021484
		C45.134766,21.06543,46,21.931152,46,22.999512z"/>
	<path fill-rule="evenodd" clip-rule="evenodd" fill="none" d="M42.920898,34.5
		c-0.533203,0.923828-1.71582,1.241211-2.641602,0.708008l-6.948242-4.011719
		c-0.924805-0.535156-1.241211-1.716797-0.708008-2.642578c0.53418-0.923828,1.717773-1.241211,2.642578-0.708008l6.947266,4.011719
		C43.138672,32.392578,43.455078,33.574219,42.920898,34.5z"/>
	<path fill-rule="evenodd" clip-rule="evenodd" fill="none" d="M34.500977,42.918945
		c-0.924805,0.533203-2.107422,0.21582-2.641602-0.708008l-4.011719-6.947266
		c-0.53418-0.925781-0.216797-2.108398,0.708008-2.643555c0.924805-0.533203,2.107422-0.21582,2.641602,0.708008l4.011719,6.949219
		C35.743164,41.202148,35.425781,42.385742,34.500977,42.918945z"/>
	<path fill-rule="evenodd" clip-rule="evenodd" fill="#F0F0F0" d="M23.001465,34.109375
		c1.067871,0,1.934082,0.866211,1.934082,1.935547v8.021484C24.935547,45.135742,24.069336,46,23.001465,46
		c-1.068359,0-1.934082-0.864258-1.934082-1.933594v-8.021484C21.067383,34.975586,21.933105,34.109375,23.001465,34.109375z"/>
	<path fill-rule="evenodd" clip-rule="evenodd" fill="#C8C8C8" d="M17.444336,32.620117
		c0.925293,0.535156,1.242188,1.717773,0.708008,2.643555l-4.01123,6.947266c-0.53418,0.923828-1.717285,1.241211-2.64209,0.708008
		s-1.241699-1.716797-0.708008-2.643555l4.011719-6.947266C15.336426,32.404297,16.519531,32.086914,17.444336,32.620117z"/>
	<path fill-rule="evenodd" clip-rule="evenodd" fill="#A0A0A0" d="M13.380859,28.553711
		c0.533691,0.925781,0.216797,2.107422-0.708008,2.642578l-6.948242,4.011719C4.799805,35.741211,3.617188,35.423828,3.08252,34.5
		c-0.533691-0.925781-0.216797-2.107422,0.708008-2.642578l6.948242-4.011719
		C11.663574,27.3125,12.846191,27.629883,13.380859,28.553711z"/>
	<path fill-rule="evenodd" clip-rule="evenodd" fill="#787878" d="M11.890625,22.999512
		c0,1.067871-0.866211,1.934082-1.934082,1.934082H1.933594C0.865234,24.933594,0,24.067383,0,22.999512
		c0-1.068359,0.865234-1.934082,1.933594-1.934082h8.022949C11.024414,21.06543,11.890625,21.931152,11.890625,22.999512z"/>
	<path fill-rule="evenodd" clip-rule="evenodd" fill="#505050" d="M13.381348,17.444824
		c-0.53418,0.924805-1.716797,1.242188-2.641602,0.708008l-6.948242-4.01123c-0.924805-0.533691-1.241699-1.717285-0.708008-2.64209
		c0.53418-0.924805,1.717285-1.241699,2.64209-0.708008l6.947754,4.01123
		C13.598145,15.336914,13.915527,16.52002,13.381348,17.444824z"/>
	<path fill-rule="evenodd" clip-rule="evenodd" fill="#282828" d="M17.445801,13.378906
		c-0.924805,0.53418-2.10791,0.216797-2.641602-0.708008L10.79248,5.723145c-0.533691-0.924805-0.216797-2.10791,0.708008-2.64209
		c0.924805-0.533691,2.108398-0.216797,2.64209,0.708008l4.01123,6.948242
		C18.687988,11.662109,18.370605,12.844727,17.445801,13.378906z"/>
	<path fill-rule="evenodd" clip-rule="evenodd" d="M23.001465,0c1.067871,0,1.934082,0.866211,1.934082,1.934082v8.022461
		c0,1.067871-0.866211,1.934082-1.934082,1.934082c-1.068359,0-1.934082-0.866211-1.934082-1.934082V1.934082
		C21.067383,0.866211,21.933105,0,23.001465,0z"/>
</g>
</svg>
